<svg width="501" height="385" viewBox="0 0 501 385" fill="none" xmlns="http://www.w3.org/2000/svg">
<path d="M218.123 5H32V313.729H218.123V5Z" fill="#EBEBEB"/>
<path d="M204.156 20.371H45.9775V217.684H204.156V20.371Z" fill="white"/>
<path d="M54.6154 344.791H43.8291V313.729H63.019L54.6154 344.791Z" fill="#EBEBEB"/>
<path d="M63.019 313.719L59.9235 325.175H43.8291V313.719H63.019Z" fill="#C7C7C7"/>
<path d="M195.518 344.791H206.304V313.729H187.114L195.518 344.791Z" fill="#EBEBEB"/>
<path d="M187.114 313.719L190.22 325.175H206.304V313.719H187.114Z" fill="#C7C7C7"/>
<path d="M204.156 230.364C192.1 230.555 180.044 230.68 167.988 230.736C155.947 230.853 143.905 230.832 131.821 230.875L132.332 230.364C132.332 235.459 132.332 240.555 132.332 245.65L132.311 260.925C132.204 271.116 132.109 281.307 131.875 291.497C131.63 281.307 131.534 271.116 131.428 260.925V245.65C131.428 240.555 131.428 235.459 131.428 230.364V229.832H131.938C143.98 229.832 156.021 229.832 168.105 229.97C180.19 230.109 192.114 230.173 204.156 230.364Z" fill="#C7C7C7"/>
<path d="M131.907 300.22C143.963 300.028 156.019 299.901 168.074 299.837C180.116 299.72 192.157 299.752 204.242 299.709L203.731 300.22C203.731 295.22 203.731 290.231 203.731 285.232L203.795 270.233C203.891 260.244 203.986 250.245 204.22 240.257C204.465 250.245 204.561 260.244 204.656 270.233L204.72 285.232C204.72 290.231 204.773 295.22 204.72 300.22V300.741H204.21C192.168 300.688 180.127 300.741 168.042 300.603C155.958 300.464 143.949 300.422 131.907 300.22Z" fill="#C7C7C7"/>
<path d="M138.715 273.041H143.311V255.404H138.715V273.041Z" fill="#C7C7C7"/>
<path d="M45.9775 230.364C58.0333 230.173 70.089 230.048 82.1447 229.992C94.1862 229.875 106.228 229.896 118.312 229.853H118.822V230.364C118.822 235.459 118.822 240.555 118.822 245.65V260.925C118.716 271.116 118.62 281.307 118.376 291.497C118.142 281.307 118.046 271.116 117.94 260.925V245.65C117.94 240.555 117.94 235.459 117.94 230.364L118.45 230.875C106.409 230.875 94.3671 230.875 82.283 230.736C70.1989 230.598 58.0191 230.555 45.9775 230.364Z" fill="#C7C7C7"/>
<path d="M118.227 300.22C106.185 300.422 94.1437 300.528 82.0596 300.603C69.9755 300.677 57.9765 300.688 45.8924 300.741H45.3818V300.22C45.3818 295.22 45.3818 290.231 45.3818 285.232L45.4457 270.233C45.5414 260.244 45.6371 250.245 45.8818 240.257C46.1158 250.245 46.2116 260.244 46.3073 270.233L46.3711 285.232C46.3711 290.231 46.4243 295.22 46.3711 300.22L45.8605 299.709C57.9021 299.709 69.9436 299.709 82.0277 299.837C94.1118 299.965 106.185 300.039 118.227 300.22Z" fill="#C7C7C7"/>
<path d="M111.42 255.394H106.824V273.031H111.42V255.394Z" fill="#C7C7C7"/>
<path d="M204.156 15.6055H45.9775V20.3711H204.156V15.6055Z" fill="#EBEBEB"/>
<path d="M204.156 82.9615H45.9775V87.7271H204.156V82.9615Z" fill="#EBEBEB"/>
<path d="M204.156 150.318H45.9775V155.083H204.156V150.318Z" fill="#EBEBEB"/>
<path d="M75.6025 82.9509V29.3171H59.3273V82.9509H75.6025Z" fill="#C7C7C7"/>
<path d="M75.6025 67.75V61.8569H59.3273V67.75H75.6025Z" fill="#E5E1DA"/>
<path d="M75.6025 42.082V39.8907H59.3273V42.082H75.6025Z" fill="#E5E1DA"/>
<path d="M181.02 29.3278V82.9615H197.295V29.3278H181.02Z" fill="#C7C7C7"/>
<path d="M181.02 44.5286V50.4217H197.295V44.5286H181.02Z" fill="#E5E1DA"/>
<path d="M197.305 79.7597V77.5684H181.029V79.7597H197.305Z" fill="#E5E1DA"/>
<path d="M197.294 69.686V67.4947H181.019V69.686H197.294Z" fill="#E5E1DA"/>
<path d="M151.713 82.9509V29.3171H139.363V82.9509H151.713Z" fill="#C7C7C7"/>
<path d="M151.724 67.75V61.8569H139.374V67.75H151.724Z" fill="#E5E1DA"/>
<path d="M151.724 42.0926V39.9013H139.374V42.0926H151.724Z" fill="#E5E1DA"/>
<path d="M86.9844 82.9509V20.3817H75.6024V82.9509H86.9844Z" fill="#E5E1DA"/>
<path d="M84.6553 50.326V26.2642H77.8261V50.326H84.6553Z" fill="#EBEBEB"/>
<path d="M197.306 24.1154V82.9509H204.167V24.1154H197.306Z" fill="#A6A6A6"/>
<path d="M198.698 28.1895V50.8153H202.815V28.1895H198.698Z" fill="#EBEBEB"/>
<path d="M151.724 25.7429V82.9509H163.106V25.7429H151.724Z" fill="#E5E1DA"/>
<path d="M154.053 55.5809V77.579H160.882V55.5809H154.053Z" fill="#EBEBEB"/>
<path d="M106.292 82.9615V35.4336H86.9745V82.9615H106.292Z" fill="#A6A6A6"/>
<path d="M106.292 77.9194V73.4942H86.9745V77.9194H106.292Z" fill="#C7C7C7"/>
<path d="M106.292 70.5796V68.867H86.9745V70.5796H106.292Z" fill="#C7C7C7"/>
<path d="M59.3271 82.9722V38.3057H45.9772V82.9722H59.3271Z" fill="#A6A6A6"/>
<path d="M59.3271 78.2172V74.058H45.9772V78.2172H59.3271Z" fill="#C7C7C7"/>
<path d="M59.3271 51.6557V47.4964H45.9772V51.6557H59.3271Z" fill="#C7C7C7"/>
<path d="M59.3174 56.134V54.5171H45.9674V56.134H59.3174Z" fill="#C7C7C7"/>
<path d="M181.02 82.9615V20.3817H163.096V82.9615H181.02Z" fill="#A6A6A6"/>
<path d="M181.02 76.3238V70.4945H163.096V76.3238H181.02Z" fill="#C7C7C7"/>
<path d="M181.02 39.1142V33.2849H163.096V39.1142H181.02Z" fill="#C7C7C7"/>
<path d="M181.02 45.3796V43.1138H163.096V45.3796H181.02Z" fill="#C7C7C7"/>
<path d="M139.331 80.8681L122.434 29.7751L116.101 31.8694L132.999 82.9623L139.331 80.8681Z" fill="#A6A6A6"/>
<path d="M137.551 75.4514L135.975 70.6845L129.642 72.7787L131.219 77.5457L137.551 75.4514Z" fill="#C7C7C7"/>
<path d="M127.497 45.0713L125.921 40.3044L119.589 42.3986L121.165 47.1656L127.497 45.0713Z" fill="#C7C7C7"/>
<path d="M106.303 22.7644V82.9615H116.11V22.7644H106.303Z" fill="#C7C7C7"/>
<path d="M106.303 29.1469V34.7528H116.11V29.1469H106.303Z" fill="#EBEBEB"/>
<path d="M106.292 64.9524V70.5583H116.1V64.9524H106.292Z" fill="#EBEBEB"/>
<path d="M106.303 58.921V61.1017H116.11V58.921H106.303Z" fill="#EBEBEB"/>
<path d="M167.541 150.307V96.6731H151.266V150.307H167.541Z" fill="#C7C7C7"/>
<path d="M167.541 135.106V129.213H151.266V135.106H167.541Z" fill="#E5E1DA"/>
<path d="M167.541 109.438V107.247H151.266V109.438H167.541Z" fill="#E5E1DA"/>
<path d="M52.8281 96.6731V150.307H69.1033V96.6731H52.8281Z" fill="#C7C7C7"/>
<path d="M52.8389 111.874V117.767H69.1141V111.874H52.8389Z" fill="#E5E1DA"/>
<path d="M69.1133 147.116V144.924H52.8381V147.116H69.1133Z" fill="#E5E1DA"/>
<path d="M69.1133 137.031V134.84H52.8381V137.031H69.1133Z" fill="#E5E1DA"/>
<path d="M110.759 150.296V96.6625H98.4088V150.296H110.759Z" fill="#C7C7C7"/>
<path d="M110.759 135.106V129.213H98.4088V135.106H110.759Z" fill="#E5E1DA"/>
<path d="M110.759 109.438V107.247H98.4088V109.438H110.759Z" fill="#E5E1DA"/>
<path d="M151.256 150.307V87.7377H139.874V150.307H151.256Z" fill="#E5E1DA"/>
<path d="M149.032 117.671V93.6096H142.203V117.671H149.032Z" fill="#EBEBEB"/>
<path d="M45.9775 104.502V150.296H52.8387V104.502H45.9775Z" fill="#A6A6A6"/>
<path d="M47.3066 107.662V125.277H51.4233V107.662H47.3066Z" fill="#EBEBEB"/>
<path d="M87.0381 93.0883V150.296H98.4201V93.0883H87.0381Z" fill="#E5E1DA"/>
<path d="M89.2617 122.926V144.924H96.0909V122.926H89.2617Z" fill="#EBEBEB"/>
<path d="M139.886 150.318V102.79H120.568V150.318H139.886Z" fill="#A6A6A6"/>
<path d="M139.886 145.265V140.84H120.568V145.265H139.886Z" fill="#C7C7C7"/>
<path d="M139.896 137.936V136.223H120.578V137.936H139.896Z" fill="#C7C7C7"/>
<path d="M204.155 150.307V93.0883H190.805V150.307H204.155Z" fill="#A6A6A6"/>
<path d="M204.166 144.244V138.914H190.816V144.244H204.166Z" fill="#C7C7C7"/>
<path d="M204.155 110.215V104.885H190.805V110.215H204.155Z" fill="#C7C7C7"/>
<path d="M204.155 115.948V113.884H190.805V115.948H204.155Z" fill="#C7C7C7"/>
<path d="M87.0381 150.318V87.7377H69.1141V150.318H87.0381Z" fill="#A6A6A6"/>
<path d="M87.0381 143.669V137.84H69.1141V143.669H87.0381Z" fill="#C7C7C7"/>
<path d="M87.0381 106.46V100.63H69.1141V106.46H87.0381Z" fill="#C7C7C7"/>
<path d="M87.0381 112.725V110.459H69.1141V112.725H87.0381Z" fill="#C7C7C7"/>
<path d="M173.883 150.316L190.78 99.2232L184.448 97.129L167.551 148.222L173.883 150.316Z" fill="#E5E1DA"/>
<path d="M175.677 144.914L177.254 140.147L170.922 138.053L169.345 142.82L175.677 144.914Z" fill="#C7C7C7"/>
<path d="M185.721 114.523L187.298 109.756L180.966 107.662L179.389 112.429L185.721 114.523Z" fill="#C7C7C7"/>
<path d="M110.759 90.1099V150.307H120.566V90.1099H110.759Z" fill="#E5E1DA"/>
<path d="M110.759 96.5029V102.109H120.566V96.5029H110.759Z" fill="#EBEBEB"/>
<path d="M110.759 132.308V137.914H120.566V132.308H110.759Z" fill="#EBEBEB"/>
<path d="M110.759 126.266V128.447H120.566V126.266H110.759Z" fill="#EBEBEB"/>
<path d="M69.6992 217.674V164.04H57.3492V217.674H69.6992Z" fill="#C7C7C7"/>
<path d="M69.6992 202.483V196.59H57.3492V202.483H69.6992Z" fill="#E5E1DA"/>
<path d="M69.6992 176.815V174.624H57.3492V176.815H69.6992Z" fill="#E5E1DA"/>
<path d="M57.3496 217.684L57.3496 155.115H45.9676V217.684H57.3496Z" fill="#E5E1DA"/>
<path d="M55.126 185.049V160.987H48.2968V185.049H55.126Z" fill="#EBEBEB"/>
<path d="M69.6992 170.156V217.684H89.0167V170.156H69.6992Z" fill="#A6A6A6"/>
<path d="M69.6992 175.198V179.624H89.0167V175.198H69.6992Z" fill="#C7C7C7"/>
<path d="M69.6992 182.538V184.251H89.0167V182.538H69.6992Z" fill="#C7C7C7"/>
<path d="M193.061 217.674V164.04H183.04V217.674H193.061Z" fill="#C7C7C7"/>
<path d="M193.061 202.473V196.58H183.04V202.473H193.061Z" fill="#E5E1DA"/>
<path d="M193.061 176.805V174.613H183.04V176.805H193.061Z" fill="#E5E1DA"/>
<path d="M89.0273 159.37V217.684H101.984V159.37H89.0273Z" fill="#C7C7C7"/>
<path d="M89.0166 175.89V182.294H101.973V175.89H89.0166Z" fill="#E5E1DA"/>
<path d="M101.973 214.195V211.812H89.0163V214.195H101.973Z" fill="#E5E1DA"/>
<path d="M101.983 203.239V200.856H89.027V203.239H101.983Z" fill="#E5E1DA"/>
<path d="M132.533 217.663V157.168H120.183V217.663H132.533Z" fill="#C7C7C7"/>
<path d="M132.533 200.515V193.867H120.183V200.515H132.533Z" fill="#E5E1DA"/>
<path d="M132.533 171.571V169.103H120.183V171.571H132.533Z" fill="#E5E1DA"/>
<path d="M108.547 217.663V157.477H101.973V217.663H108.547Z" fill="#E5E1DA"/>
<path d="M107.259 186.293V163.146H103.312V186.293H107.259Z" fill="#EBEBEB"/>
<path d="M161.67 160.466V217.674H183.04V160.466H161.67Z" fill="#E5E1DA"/>
<path d="M165.85 190.293V212.291H178.668V190.293H165.85Z" fill="#EBEBEB"/>
<path d="M161.67 217.674V166.561H142.352V217.674H161.67Z" fill="#A6A6A6"/>
<path d="M161.67 212.259V207.494H142.352V212.259H161.67Z" fill="#C7C7C7"/>
<path d="M161.67 204.377V202.526H142.352V204.377H161.67Z" fill="#C7C7C7"/>
<path d="M204.166 217.674V160.455H193.071V217.674H204.166Z" fill="#A6A6A6"/>
<path d="M204.155 211.61V206.281H193.06V211.61H204.155Z" fill="#C7C7C7"/>
<path d="M204.166 177.581V172.252H193.071V177.581H204.166Z" fill="#C7C7C7"/>
<path d="M204.155 183.304V181.24H193.06V183.304H204.155Z" fill="#C7C7C7"/>
<path d="M120.194 217.674V163.487H108.546V217.674H120.194Z" fill="#A6A6A6"/>
<path d="M120.185 211.94V206.887H108.537V211.94H120.185Z" fill="#C7C7C7"/>
<path d="M120.185 179.719V174.667H108.537V179.719H120.185Z" fill="#C7C7C7"/>
<path d="M120.194 185.123V183.166H108.546V185.123H120.194Z" fill="#C7C7C7"/>
<path d="M132.533 160.083V217.674H142.341V160.083H132.533Z" fill="#E5E1DA"/>
<path d="M132.544 166.189V171.56H142.352V166.189H132.544Z" fill="#EBEBEB"/>
<path d="M132.533 200.441V205.813H142.341V200.441H132.533Z" fill="#EBEBEB"/>
<path d="M132.533 194.676V196.76H142.341V194.676H132.533Z" fill="#EBEBEB"/>
<path d="M359.77 316.452H496.046L500.429 229.981H355.388L359.77 316.452Z" fill="#EBEBEB"/>
<path d="M486.057 269.563H366.046L364.387 239.544H487.983L486.057 269.563ZM367.057 268.499H485.057L486.855 240.608H365.514L367.057 268.499Z" fill="#E5E1DA"/>
<path d="M484.408 304.092H369.524L368.184 276.998H486.131L484.408 304.092ZM370.481 303.028H483.429L484.993 278.062H369.269L370.481 303.028Z" fill="#E5E1DA"/>
<path d="M439.858 257.808H414.414L413.478 250.564H440.794L439.858 257.808ZM415.392 256.745H438.965L439.624 251.628H414.733L415.392 256.745Z" fill="#E5E1DA"/>
<path d="M439.858 294.167H414.414L413.478 286.923H440.794L439.858 294.167ZM415.392 293.103H438.965L439.624 287.987H414.733L415.392 293.103Z" fill="#E5E1DA"/>
<path d="M378.673 316.452L377.354 325.867L374.684 344.791H369.482V316.452H378.673Z" fill="#EBEBEB"/>
<path d="M378.673 316.452L377.354 325.867H369.482V316.452H378.673Z" fill="#E5E1DA"/>
<path d="M477.154 316.452L478.473 325.867L481.133 344.791H486.334V316.452H477.154Z" fill="#EBEBEB"/>
<path d="M477.154 316.452L478.473 325.867H486.334V316.452H477.154Z" fill="#E5E1DA"/>
<path d="M489.695 188.591H436.062V198.611H489.695V188.591Z" fill="#C7C7C7"/>
<path d="M474.496 188.591H468.603V198.611H474.496V188.591Z" fill="#E5E1DA"/>
<path d="M448.838 188.591H446.646V198.611H448.838V188.591Z" fill="#E5E1DA"/>
<path d="M491.493 177.485H423.595V188.58H491.493V177.485Z" fill="#A6A6A6"/>
<path d="M484.292 177.485H477.963V188.58H484.292V177.485Z" fill="#C7C7C7"/>
<path d="M443.911 177.485H437.582V188.58H443.911V177.485Z" fill="#C7C7C7"/>
<path d="M450.709 177.485H448.252V188.58H450.709V177.485Z" fill="#C7C7C7"/>
<path d="M436.912 215.918H494.503V206.111H436.912V215.918Z" fill="#A6A6A6"/>
<path d="M443.018 215.918H448.39V206.111H443.018V215.918Z" fill="#EBEBEB"/>
<path d="M477.26 215.918H482.632V206.111H477.26V215.918Z" fill="#EBEBEB"/>
<path d="M471.506 215.918H473.591V206.111H471.506V215.918Z" fill="#EBEBEB"/>
<path d="M491.588 215.918H420.339V229.981H491.588V215.918Z" fill="#C7C7C7"/>
<path d="M465.718 217.376H420.339V228.524H465.718V217.376Z" fill="white"/>
<path d="M423.276 219.663C426.822 219.592 430.368 219.539 433.914 219.503L444.551 219.45L455.189 219.503C458.731 219.503 462.262 219.588 465.826 219.663C462.284 219.748 458.752 219.801 455.189 219.833H444.551H433.914C430.361 219.798 426.815 219.741 423.276 219.663Z" fill="#E5E1DA"/>
<path d="M423.276 221.854C426.819 221.78 430.35 221.716 433.914 221.684H444.551H455.189C458.731 221.684 462.262 221.769 465.826 221.854C462.284 221.929 458.752 221.992 455.189 222.014L444.551 222.067L433.914 222.014C430.35 221.992 426.819 221.929 423.276 221.854Z" fill="#E5E1DA"/>
<path d="M423.276 224.035C426.822 223.964 430.368 223.911 433.914 223.875H444.551H455.189C458.731 223.875 462.262 223.96 465.826 224.035C462.284 224.12 458.752 224.173 455.189 224.205L444.551 224.258L433.914 224.205C430.361 224.177 426.815 224.12 423.276 224.035Z" fill="#E5E1DA"/>
<path d="M423.276 226.226C426.819 226.152 430.35 226.088 433.914 226.066H444.551H455.189C458.731 226.066 462.262 226.162 465.826 226.237C462.284 226.311 458.752 226.375 455.189 226.407H444.551L433.914 226.354C430.35 226.364 426.819 226.301 423.276 226.226Z" fill="#E5E1DA"/>
<path d="M485.833 198.611H421.126V206.111H485.833V198.611Z" fill="#EBEBEB"/>
<path d="M447.826 205.334H485.844V199.388H447.826V205.334Z" fill="white"/>
<path d="M483.345 204.111C480.388 204.111 477.42 204.164 474.463 204.175H465.57H456.688C453.72 204.175 450.763 204.175 447.795 204.111C450.763 204.111 453.72 204.058 456.688 204.047H465.57H474.463C477.452 204.058 480.42 204.079 483.345 204.111Z" fill="#E5E1DA"/>
<path d="M483.345 202.941C480.388 202.941 477.42 202.941 474.463 203.005H465.57H456.688C453.72 203.005 450.763 203.005 447.795 202.941C450.763 202.941 453.72 202.888 456.688 202.877H474.463L483.345 202.941Z" fill="#E5E1DA"/>
<path d="M483.345 201.781C480.388 201.781 477.42 201.835 474.463 201.845H465.57H456.688C453.72 201.845 450.763 201.845 447.795 201.781C450.763 201.781 453.72 201.728 456.688 201.717H465.57H474.463C477.452 201.728 480.42 201.749 483.345 201.781Z" fill="#E5E1DA"/>
<path d="M483.345 200.611C480.388 200.611 477.42 200.664 474.463 200.675H465.57H456.688C453.72 200.675 450.763 200.675 447.795 200.611C450.763 200.611 453.72 200.558 456.688 200.547H465.57H474.463C477.452 200.558 480.42 200.579 483.345 200.611Z" fill="#E5E1DA"/>
<path d="M364.994 83.8232H400.342V48.4751L364.994 48.4751V83.8232Z" fill="#E5E1DA"/>
<path d="M370.472 78.3449H394.863V53.9533H370.472V78.3449Z" fill="white"/>
<path d="M394.852 53.9533V78.3449H370.461L394.852 53.9533Z" fill="#EBEBEB"/>
<path d="M364.994 40.3587L400.342 40.3587V5.01062L364.994 5.01062V40.3587Z" fill="#E5E1DA"/>
<path d="M370.472 34.8698H394.863V10.4783L370.472 10.4783V34.8698Z" fill="white"/>
<path d="M394.852 17.6479V34.8698H377.63L394.852 17.6479Z" fill="#EBEBEB"/>
<path d="M310.328 84.121H356.526V5.01065H310.328V84.121Z" fill="#E5E1DA"/>
<path d="M316.041 78.3449H350.814V10.7761H316.041V78.3449Z" fill="white"/>
<path d="M350.814 34.0507V78.3449H328.019L350.814 34.0507Z" fill="#EBEBEB"/>
<path d="M408.585 84.121L487.695 84.121V5.01065L408.585 5.01065V84.121Z" fill="#E5E1DA"/>
<path d="M481.92 10.7761H414.362V78.3449H481.92V10.7761Z" fill="white"/>
<path d="M433.274 78.3449C443.486 68.0691 472.452 38.9865 481.919 29.6149V78.3449H433.274Z" fill="#EBEBEB"/>
<path d="M80.002 317.339L129.587 317.123L179.163 317.042L278.324 316.898L377.485 317.042L427.062 317.123L476.647 317.339L427.062 317.564L377.485 317.645L278.324 317.789L179.163 317.645L129.587 317.564L80.002 317.339Z" fill="#263238"/>
<path d="M278.323 384.533C379.884 384.533 462.215 374.283 462.215 361.64C462.215 348.996 379.884 338.747 278.323 338.747C176.763 338.747 94.4316 348.996 94.4316 361.64C94.4316 374.283 176.763 384.533 278.323 384.533Z" fill="#EBEBEB"/>
<path d="M231.98 306.437H417.168V269.897H231.98V306.437Z" fill="#ADBC9F"/>
<path d="M382.599 306.437H400.693V269.897H382.599V306.437Z" fill="#3C3633"/>
<path d="M368.33 306.437H375.883V269.897H368.33V306.437Z" fill="#3C3633"/>
<path d="M248.814 306.437H266.909V269.897H248.814V306.437Z" fill="#3C3633"/>
<path d="M202.277 177.002L154.722 355.98L180.971 362.954L228.526 183.976L202.277 177.002Z" fill="#3C3633"/>
<path d="M163.594 322.566L158.947 340.054L185.197 347.029L189.843 329.541L163.594 322.566Z" fill="#ADBC9F"/>
<path d="M197.954 193.282L193.308 210.77L219.557 217.745L224.204 200.257L197.954 193.282Z" fill="#ADBC9F"/>
<path d="M192.783 362.18H407.265V343.914H192.783V362.18Z" fill="#ADBC9F"/>
<path d="M350.703 362.18H359.444V343.914H350.703V362.18Z" fill="#627254"/>
<path d="M365.224 362.18H373.965V343.914H365.224V362.18Z" fill="#627254"/>
<path d="M214.182 362.18H222.923V343.914H214.182V362.18Z" fill="#627254"/>
<path d="M228.693 362.18H237.435V343.914H228.693V362.18Z" fill="#627254"/>
<path d="M341.466 242.637H213.002V269.897H341.466V242.637Z" fill="#747264"/>
<path d="M414.692 242.637H341.458V269.897H414.692V242.637Z" fill="#747264"/>
<path d="M341.466 245.464H213.002V267.07H341.466V245.464Z" fill="white"/>
<path d="M221.312 249.911C231.322 249.755 241.336 249.65 251.352 249.596L281.384 249.497L311.425 249.596C321.436 249.65 331.447 249.755 341.457 249.911C331.447 250.061 321.436 250.169 311.425 250.235L281.384 250.325L251.316 250.226C241.33 250.172 231.328 250.067 221.312 249.911Z" fill="#EEEDEB"/>
<path d="M221.312 254.151C231.322 254.001 241.336 253.893 251.352 253.827L281.384 253.737L311.425 253.827C321.436 253.893 331.447 254.001 341.457 254.151C331.447 254.301 321.436 254.406 311.425 254.466L281.384 254.565L251.316 254.466C241.33 254.412 231.328 254.307 221.312 254.151Z" fill="#EEEDEB"/>
<path d="M221.312 258.391C231.322 258.241 241.336 258.133 251.352 258.067L281.384 257.977L311.425 258.067C321.436 258.121 331.447 258.229 341.457 258.391C331.447 258.547 321.436 258.653 311.425 258.707L281.384 258.806L251.316 258.707C241.33 258.653 231.328 258.547 221.312 258.391Z" fill="#EEEDEB"/>
<path d="M221.312 262.632C231.322 262.476 241.336 262.368 251.352 262.308L281.384 262.209L311.425 262.308C321.436 262.362 331.447 262.47 341.457 262.632C331.447 262.788 321.436 262.893 311.425 262.947L281.384 263.046L251.316 262.947C241.33 262.893 231.328 262.788 221.312 262.632Z" fill="#EEEDEB"/>
<path d="M330.654 162.444H225.516V182.015H330.654V162.444Z" fill="#627254"/>
<path d="M390.592 162.444H330.654V182.015H390.592V162.444Z" fill="#627254"/>
<path d="M330.654 164.479H225.516V179.99H330.654V164.479Z" fill="white"/>
<path d="M232.321 167.666C240.519 167.558 248.715 167.482 256.907 167.44L281.492 167.368L306.078 167.44C314.27 167.476 322.462 167.552 330.654 167.666C322.462 167.774 314.27 167.852 306.078 167.9L281.492 167.963L256.907 167.9C248.715 167.858 240.519 167.78 232.321 167.666Z" fill="#EEEDEB"/>
<path d="M232.321 170.708C240.519 170.6 248.715 170.525 256.907 170.483L281.492 170.411L306.078 170.483C314.27 170.519 322.462 170.594 330.654 170.708C322.462 170.816 314.27 170.894 306.078 170.942L281.492 171.005L256.907 170.942C248.715 170.9 240.519 170.822 232.321 170.708Z" fill="#EEEDEB"/>
<path d="M232.321 173.751C240.519 173.643 248.715 173.568 256.907 173.526L281.492 173.454L306.078 173.526C314.27 173.562 322.462 173.637 330.654 173.751C322.462 173.865 314.27 173.943 306.078 173.985L281.492 174.048L256.907 173.985C248.715 173.943 240.519 173.865 232.321 173.751Z" fill="#EEEDEB"/>
<path d="M232.321 176.839C240.519 176.731 248.715 176.656 256.907 176.614L281.492 176.542L306.078 176.614C314.27 176.65 322.462 176.725 330.654 176.839C322.462 176.959 314.27 177.037 306.078 177.073L281.492 177.136L256.907 177.073C248.715 177.001 240.519 176.923 232.321 176.839Z" fill="#EEEDEB"/>
<path d="M193.377 211.939L167.775 308.13L153.173 362.972L139.084 359.218L153.686 304.376L179.289 208.185L193.377 211.939Z" fill="#ADBC9F"/>
<path opacity="0.1" d="M193.377 211.939L167.775 308.13L153.173 362.972L139.084 359.218L153.686 304.376L179.289 208.185L193.377 211.939Z" fill="black"/>
<path d="M166.305 307.72L191.917 211.532L180.747 208.558L155.136 304.746L166.305 307.72Z" fill="white"/>
<path d="M187.958 217.161C186.05 224.675 184.111 232.177 182.143 239.667L176.201 262.173L170.169 284.678C168.141 292.168 166.088 299.652 164.012 307.13C165.932 299.61 167.874 292.108 169.836 284.624L175.769 262.119L181.809 239.613C183.838 232.123 185.887 224.639 187.958 217.161Z" fill="#EEEDEB"/>
<path d="M185.771 216.575C183.856 224.101 181.915 231.603 179.946 239.081L174.013 261.587L167.973 284.093C165.95 291.583 163.901 299.067 161.824 306.545C163.739 299.031 165.68 291.529 167.649 284.039L173.581 261.533L179.622 239.027C181.65 231.537 183.7 224.053 185.771 216.575Z" fill="#EEEDEB"/>
<path d="M183.583 215.999C181.669 223.519 179.727 231.021 177.758 238.505L171.826 261.011L165.785 283.517C163.763 291.007 161.713 298.488 159.637 305.96C161.545 298.44 163.484 290.938 165.452 283.454L171.394 260.948L177.425 238.442C179.448 230.982 181.5 223.501 183.583 215.999Z" fill="#EEEDEB"/>
<path d="M181.386 215.414C179.477 222.928 177.539 230.43 175.57 237.92L169.629 260.426L163.597 282.932C161.575 290.422 159.522 297.903 157.439 305.375C159.354 297.861 161.295 290.359 163.264 282.869L169.197 260.363L175.237 237.857C177.266 230.367 179.315 222.886 181.386 215.414Z" fill="#EEEDEB"/>
<path d="M284.869 343.905H392.492V306.437H284.869V343.905Z" fill="#3C3633"/>
<path d="M209.275 343.905H284.868V306.437H209.275V343.905Z" fill="#3C3633"/>
<path d="M284.869 340.016H392.492V310.326H284.869V340.016Z" fill="white"/>
<path d="M385.524 333.912C377.121 334.063 368.734 334.168 360.362 334.228L335.2 334.327L309.994 334.228C301.592 334.174 293.189 334.069 284.787 333.912C293.189 333.762 301.592 333.654 309.994 333.588L335.2 333.498L360.362 333.588C368.752 333.654 377.139 333.762 385.524 333.912Z" fill="#EEEDEB"/>
<path d="M385.524 328.079C377.121 328.229 368.734 328.334 360.362 328.394L335.2 328.493L309.994 328.394C301.592 328.34 293.189 328.235 284.787 328.079C293.189 327.929 301.592 327.821 309.994 327.755L335.2 327.665L360.362 327.755C368.752 327.815 377.139 327.923 385.524 328.079Z" fill="#EEEDEB"/>
<path d="M385.524 322.263C377.121 322.413 368.734 322.518 360.362 322.578L335.2 322.677L309.994 322.578C301.592 322.524 293.189 322.419 284.787 322.263C293.189 322.107 301.592 321.999 309.994 321.939L335.2 321.84L360.362 321.939C368.752 321.993 377.139 322.101 385.524 322.263Z" fill="#EEEDEB"/>
<path d="M385.524 316.439C377.121 316.595 368.734 316.7 360.362 316.754L335.2 316.853L309.994 316.754C301.592 316.7 293.189 316.595 284.787 316.439C293.189 316.277 301.592 316.169 309.994 316.115L335.2 316.016L360.362 316.115C368.752 316.169 377.139 316.277 385.524 316.439Z" fill="#EEEDEB"/>
<path d="M417.725 217.215H220.195V242.745H417.725V217.215Z" fill="#EEEDEB"/>
<path d="M314.739 222.427H238.768V237.749H314.739V222.427Z" fill="white"/>
<path d="M404.393 222.427H333.076V224.795H404.393V222.427Z" fill="white"/>
<path d="M404.393 228.801H333.076V231.168H404.393V228.801Z" fill="white"/>
<path d="M404.393 235.165H333.076V237.533H404.393V235.165Z" fill="white"/>
<path d="M379.511 182.015H233.853V217.098H379.511V182.015Z" fill="#ADBC9F"/>
<path d="M364.063 182.015H350.487V217.098H364.063V182.015Z" fill="#3C3633"/>
<path d="M341.584 182.015H336.317V217.098H341.584V182.015Z" fill="#3C3633"/>
<path d="M43.5547 298.106C49.2712 286.349 59.2728 280.317 70.5618 283.657C81.8508 286.997 83.5792 302.706 75.171 306.676C66.7628 310.646 58.3366 299.051 53.8894 296.675C49.4422 294.298 43.5547 298.106 43.5547 298.106Z" fill="#ADBC9F"/>
<path d="M38.0184 329.38C38.0184 327.958 38.1084 326.545 38.1534 325.131C38.2524 322.304 38.3514 319.469 38.4595 316.642C38.6485 311.475 39.2067 306.397 41.3492 301.626C43.2406 297.303 46.4024 293.658 50.4146 291.174C51.905 290.278 53.5101 289.587 55.1859 289.122C56.6999 287.584 58.6307 286.523 60.7403 286.07C63.3516 285.536 66.0368 285.469 68.6714 285.872C68.7705 285.872 68.7615 286.025 68.6714 286.016C66.1582 285.696 63.6067 285.877 61.1635 286.547C60.1209 286.837 59.1105 287.232 58.1477 287.726C57.5409 288.055 56.9573 288.425 56.4012 288.834C58.6754 288.364 61.0241 288.388 63.288 288.906C64.1028 289.103 64.9006 289.365 65.6737 289.689C66.2913 289.555 66.9236 289.5 67.5551 289.527C68.3788 289.553 69.197 289.671 69.9948 289.878C71.6257 290.338 73.1857 291.019 74.631 291.903C74.721 291.948 74.631 292.074 74.559 292.029C73.1452 291.255 71.6301 290.683 70.0578 290.328C69.2942 290.151 68.5174 290.037 67.7352 289.986C67.3034 289.963 66.8707 289.963 66.4389 289.986C69.6507 291.468 72.2317 294.043 73.7218 297.251C73.7218 297.341 73.6317 297.413 73.5957 297.323C72.7042 295.461 71.4029 293.825 69.7893 292.537C68.1757 291.249 66.2917 290.343 64.2783 289.887C64.0262 289.824 63.7742 289.788 63.5221 289.734C63.6121 290.103 63.5941 290.517 63.6481 290.877C63.7201 291.444 63.8192 292.011 63.9272 292.579C64.1596 293.742 64.4602 294.89 64.8274 296.017C65.2103 297.159 65.6674 298.275 66.1958 299.357C66.703 300.5 67.3436 301.579 68.1043 302.571C68.1673 302.652 68.0413 302.751 67.9873 302.661C67.3031 301.599 66.5199 300.618 65.8987 299.519C65.3089 298.466 64.7974 297.371 64.3683 296.243C63.9412 295.095 63.607 293.915 63.369 292.714C63.243 292.083 63.144 291.444 63.072 290.805C62.9942 290.423 62.97 290.032 62.9999 289.644C61.6743 289.438 60.3274 289.408 58.9939 289.554C59.498 292.363 60.0382 295.279 61.6046 297.719C61.6586 297.8 61.5146 297.872 61.4695 297.791C60.7381 296.496 60.0915 295.155 59.534 293.776C59.0209 292.438 58.6967 291.035 58.5708 289.608C56.244 289.917 53.998 290.669 51.954 291.822C48.1 294.06 45.0241 297.425 43.1407 301.464C41.1538 305.81 40.0463 310.507 39.8818 315.283C39.5037 321.287 39.4317 327.328 38.8286 333.287C38.8286 333.674 38.1714 333.809 38.0994 333.368C37.9436 332.045 37.9165 330.709 38.0184 329.38Z" fill="#3C3633"/>
<path d="M51.234 290.238C51.6078 289.78 52.0442 289.377 52.5304 289.041C52.9985 288.654 53.4306 288.275 53.9797 287.933C54.9718 287.255 56.0702 286.747 57.2296 286.43C57.3196 286.43 57.3556 286.556 57.2296 286.574C56.0615 286.865 54.9689 287.403 54.0247 288.149C53.5476 288.501 53.1245 288.879 52.6384 289.266C52.2418 289.681 51.8045 290.055 51.333 290.382C51.279 290.427 51.171 290.319 51.234 290.238Z" fill="#3C3633"/>
<path d="M69.4728 294.496C70.4198 295.594 71.2949 296.751 72.0925 297.962C72.8767 299.181 73.5314 300.478 74.046 301.833C74.046 301.833 74.046 301.896 73.974 301.833C72.6687 299.272 71.1255 296.84 69.3648 294.568C69.3018 294.523 69.4098 294.388 69.4728 294.496Z" fill="#3C3633"/>
<path d="M57.176 293.335C57.2971 294.069 57.5151 294.783 57.8242 295.459C58.138 296.114 58.5021 296.743 58.9135 297.341C58.9135 297.341 58.9135 297.422 58.8505 297.386C57.8697 296.253 57.2436 294.857 57.05 293.371C56.987 293.272 57.158 293.236 57.176 293.335Z" fill="#3C3633"/>
<path d="M38.8196 298.394C38.8196 298.394 30.7174 288.221 15.1073 291.822C0.2714 295.288 -6.59741 322.475 8.37354 325.734C23.3445 328.993 20.7338 303.796 26.1982 299.519C30.2493 296.387 36.0198 297.089 38.8196 298.394Z" fill="#ADBC9F"/>
<path d="M3.03534 306.694C4.05372 305.802 5.13038 304.977 6.2582 304.228C7.31589 303.5 8.47044 302.924 9.6881 302.517C10.2918 301.589 10.9724 300.712 11.7226 299.898C13.1081 298.411 14.7107 297.142 16.4759 296.135H16.0078C15.1795 296.135 14.3513 296.135 13.5231 296.135C11.8578 296.241 10.2257 296.65 8.70684 297.341C8.61682 297.341 8.5538 297.242 8.64382 297.206C10.184 296.536 11.7974 296.05 13.4511 295.756C14.2558 295.608 15.0726 295.536 15.8907 295.54C16.3319 295.54 16.791 295.54 17.2051 295.621H17.4572C18.8891 294.899 20.3994 294.343 21.9583 293.965L21.5262 293.848C20.7507 293.682 19.9662 293.562 19.1766 293.488C17.6199 293.305 16.0457 293.329 14.4954 293.56C14.4053 293.56 14.3783 293.425 14.4954 293.407C16.0632 293.218 17.6437 293.155 19.2216 293.218C20.5466 293.26 21.8643 293.431 23.1557 293.731C24.0949 293.555 25.0456 293.447 26.0004 293.407C31.4018 293.173 37.3884 295.207 40.7373 299.708C44.0862 304.21 44.7524 310.169 45.3465 315.58C46.2552 323.112 46.4541 330.714 45.9407 338.284C45.9407 338.734 45.2745 338.644 45.2655 338.221C45.0584 331.802 44.8334 325.383 44.2212 318.983C43.9331 316.021 43.6181 313.05 43.1229 310.115C42.7703 307.586 42.0453 305.122 40.9714 302.805C39.8149 300.416 37.9719 298.425 35.678 297.089C33.3797 295.779 30.8173 295.001 28.179 294.811C25.8214 294.615 23.4478 294.834 21.1661 295.459C21.2336 295.919 21.2336 296.386 21.1661 296.846C21.1104 297.426 20.9958 297.999 20.824 298.556C20.6498 299.079 20.4299 299.585 20.1669 300.069C19.8788 300.609 19.5187 301.086 19.1946 301.599C19.1406 301.68 19.0146 301.599 19.0686 301.509C19.7099 300.592 20.1262 299.538 20.2839 298.43C20.3829 297.904 20.446 297.372 20.4729 296.837C20.4729 296.441 20.4729 296.027 20.4729 295.63C17.9951 296.391 15.683 297.613 13.6581 299.231C13.271 299.537 12.9109 299.862 12.5509 300.186C13.0635 300.667 13.5087 301.215 13.8742 301.815C14.4374 302.594 14.9285 303.423 15.3416 304.291C16.064 306.018 16.5514 307.835 16.791 309.692C16.7854 309.708 16.7751 309.722 16.7614 309.732C16.7477 309.741 16.7313 309.747 16.7145 309.747C16.6976 309.747 16.6812 309.741 16.6675 309.732C16.6538 309.722 16.6435 309.708 16.6379 309.692C16.343 307.884 15.7337 306.141 14.8375 304.543C14.424 303.752 13.9609 302.988 13.4511 302.256C13.19 301.878 12.92 301.509 12.6319 301.149C12.4788 300.96 12.3078 300.762 12.1638 300.555C10.3264 302.353 8.82623 304.466 7.73458 306.793C8.46263 307.575 9.06952 308.461 9.53506 309.422C10.1222 310.45 10.6366 311.518 11.0745 312.618C11.8303 314.698 12.4527 316.824 12.938 318.983C12.938 319.082 12.8119 319.109 12.7939 318.983C12.3193 316.798 11.5754 314.682 10.5793 312.681C10.1112 311.709 9.61608 310.745 9.10295 309.791C8.55891 308.922 8.06885 308.02 7.63556 307.09C6.58806 309.357 5.97723 311.8 5.83508 314.292C5.83508 314.391 5.67304 314.373 5.68204 314.292C5.96879 310.366 7.17122 306.561 9.19297 303.183C8.23872 303.589 7.27546 303.985 6.35722 304.48C5.18136 305.101 4.08931 305.869 3.10736 306.766C3.06235 306.874 2.97233 306.757 3.03534 306.694Z" fill="#3C3633"/>
<path d="M14.4951 307.27C14.9633 308.81 15.5574 310.313 15.9805 311.871C16.4103 313.364 16.6403 314.908 16.6647 316.462C16.6647 316.507 16.6017 316.507 16.5927 316.462C16.172 313.342 15.4206 310.276 14.3511 307.315C14.3481 307.306 14.3471 307.296 14.348 307.286C14.3488 307.276 14.3517 307.267 14.3563 307.258C14.3609 307.249 14.3671 307.241 14.3748 307.235C14.3824 307.229 14.3911 307.224 14.4006 307.221C14.4101 307.218 14.42 307.217 14.4299 307.218C14.4397 307.219 14.4493 307.222 14.4581 307.226C14.4669 307.231 14.4747 307.237 14.481 307.245C14.4874 307.252 14.4922 307.261 14.4951 307.27Z" fill="#3C3633"/>
<path d="M4.60165 303.444C5.21308 302.85 5.91123 302.352 6.6722 301.968C7.44314 301.614 8.24464 301.331 9.06683 301.122C9.15685 301.122 9.18386 301.248 9.06683 301.266C8.25933 301.475 7.48402 301.793 6.76222 302.211C6.02493 302.597 5.31507 303.033 4.63766 303.516C4.63306 303.523 4.62696 303.527 4.61995 303.531C4.61294 303.534 4.60525 303.535 4.59761 303.534C4.58997 303.534 4.58263 303.531 4.57629 303.527C4.56995 303.522 4.56482 303.516 4.56139 303.51C4.55796 303.503 4.55634 303.495 4.55669 303.487C4.55703 303.48 4.55933 303.472 4.56336 303.466C4.5674 303.459 4.57303 303.454 4.57973 303.45C4.58643 303.446 4.59398 303.444 4.60165 303.444Z" fill="#3C3633"/>
<path d="M31.1224 284.81C31.1224 284.81 29.637 266.535 16.0434 260.611C4.70038 255.66 -1.79033 268.407 6.23079 276.212C12.7125 282.523 23.1192 279.678 31.1224 284.81Z" fill="#ADBC9F"/>
<path d="M8.74299 264.149C10.8117 264.982 12.8288 265.938 14.7836 267.012C16.4124 267.948 17.979 268.989 19.4738 270.127C19.2488 269.659 19.0507 269.172 18.8257 268.722C18.4656 268.02 18.0875 267.327 17.6734 266.661C16.8356 265.28 15.8286 264.01 14.6756 262.88C14.6125 262.817 14.6756 262.709 14.7836 262.781C15.9338 263.912 16.9878 265.138 17.9344 266.445C18.4042 267.111 18.837 267.802 19.2308 268.515C19.6237 269.171 19.9265 269.876 20.131 270.613C20.131 270.658 20.23 270.685 20.284 270.73C22.657 272.617 24.829 274.744 26.7658 277.076C26.7658 276.896 26.6937 276.716 26.6487 276.554C26.3967 275.654 26.1176 274.754 25.8205 273.899C25.2402 272.023 24.417 270.231 23.3719 268.569C23.3623 268.553 23.3598 268.533 23.3649 268.514C23.3699 268.496 23.3821 268.48 23.3989 268.47C23.4156 268.461 23.4354 268.458 23.454 268.463C23.4725 268.468 23.4883 268.481 23.4979 268.497C24.5823 270.154 25.545 271.887 26.3786 273.683C26.7453 274.559 27.0462 275.462 27.2789 276.383C27.4786 276.97 27.6291 277.572 27.729 278.184C28.3142 278.931 28.8993 279.687 29.4485 280.47C35.282 288.771 38.2078 298.817 38.91 308.864C39.114 311.86 39.1651 314.865 39.063 317.866C39.0376 320.884 38.7696 323.894 38.2618 326.869C38.2618 327.058 37.9287 326.995 37.9377 326.815C38.0007 324.168 38.2798 321.539 38.3248 318.902C38.3764 316.279 38.2953 313.656 38.0817 311.042C37.6558 305.766 36.6628 300.55 35.12 295.486C33.5273 290.308 31.1891 285.389 28.1791 280.884C27.603 280.767 27.0358 280.614 26.4687 280.47L24.4431 279.93C23.1382 279.591 21.869 279.127 20.6531 278.544C20.5631 278.499 20.6531 278.364 20.7342 278.409C21.9315 279.064 23.2312 279.512 24.5782 279.732C25.6405 279.939 26.7477 280.083 27.81 280.326C26.8313 278.888 25.7765 277.502 24.6502 276.176C22.0608 276.405 19.4515 276.208 16.9262 275.591C15.5822 275.275 14.2617 274.865 12.9741 274.367C11.6058 273.836 10.2734 273.169 8.97705 272.566C8.87803 272.566 8.97706 272.377 9.04007 272.431C11.4714 273.759 14.1262 274.629 16.8721 274.997C19.2956 275.387 21.7455 275.588 24.2001 275.6C23.2368 274.493 22.2376 273.422 21.1753 272.404C17.5743 269.001 13.3702 265.887 8.67098 264.257C8.60796 264.257 8.65297 264.113 8.74299 264.149Z" fill="#3C3633"/>
<path d="M19.798 264.203C20.4082 264.977 20.9646 265.792 21.4634 266.643C21.9744 267.537 22.3763 268.489 22.6608 269.478C22.6608 269.478 22.6608 269.523 22.6067 269.478C22.1566 268.578 21.7695 267.678 21.3104 266.778C20.8616 265.899 20.3183 265.072 19.69 264.311C19.627 264.23 19.735 264.131 19.798 264.203Z" fill="#3C3633"/>
<path d="M41.6824 281.515C41.7634 282.307 43.7349 274.88 55.1859 268.29C65.6197 262.304 78.07 246.738 67.8433 236.899C59.6331 228.968 37.8744 246.27 41.6824 281.515Z" fill="#ADBC9F"/>
<path d="M33.7783 324.096C33.9368 316.371 34.5379 308.661 35.5788 301.005C36.4833 293.955 38.1092 287.017 40.431 280.299C41.3313 277.887 42.2315 275.51 43.3208 273.169C43.2655 272.269 43.2805 271.366 43.3658 270.469C43.4198 269.298 43.5279 268.137 43.6359 266.967C43.7439 265.797 43.861 264.635 44.005 263.474C44.149 262.313 44.3921 261.151 44.4371 259.99C44.4371 259.981 44.439 259.971 44.4426 259.962C44.4462 259.954 44.4515 259.946 44.4582 259.939C44.4649 259.932 44.4728 259.927 44.4816 259.923C44.4903 259.92 44.4997 259.918 44.5091 259.918C44.5186 259.918 44.5279 259.92 44.5367 259.923C44.5454 259.927 44.5534 259.932 44.5601 259.939C44.5667 259.946 44.572 259.954 44.5757 259.962C44.5793 259.971 44.5811 259.981 44.5811 259.99C44.3534 261.212 44.215 262.448 44.167 263.69C44.086 264.815 44.014 265.95 43.987 267.075C43.96 268.2 43.987 269.334 43.987 270.469C43.987 270.874 43.987 271.306 43.987 271.747C45.0673 269.46 46.2286 267.246 47.4799 265.022C46.7057 260.26 47.714 255.282 48.6862 250.619C48.6862 250.528 48.8483 250.564 48.8303 250.664C48.3533 253.096 48.1002 255.567 48.0741 258.045C48.0741 259.999 48.1191 261.953 48.1281 263.906C48.4072 263.438 48.6772 263.006 48.9563 262.511C50.4507 260.074 52.0411 257.697 53.7276 255.381C53.5952 254.25 53.6347 253.106 53.8446 251.987C54.0298 250.732 54.3066 249.492 54.6728 248.278C55.0419 247.063 55.465 245.865 55.9511 244.677C56.4373 243.489 57.1034 242.318 57.5896 241.076C57.5937 241.067 57.5996 241.059 57.6068 241.053C57.614 241.046 57.6224 241.041 57.6316 241.037C57.6408 241.034 57.6506 241.033 57.6604 241.033C57.6701 241.034 57.6797 241.036 57.6886 241.04C57.6975 241.044 57.7054 241.05 57.712 241.057C57.7187 241.064 57.7238 241.073 57.7271 241.082C57.7305 241.091 57.732 241.101 57.7315 241.111C57.7311 241.121 57.7288 241.13 57.7246 241.139C57.1095 242.281 56.6263 243.489 56.2842 244.74C55.9117 245.921 55.6111 247.124 55.384 248.341C55.1409 249.547 54.9429 250.763 54.7718 251.942C54.6548 252.752 54.5828 253.589 54.4477 254.409C56.9041 251.103 59.5905 247.974 62.4869 245.046C62.502 245.039 62.519 245.036 62.5355 245.039C62.552 245.042 62.5672 245.05 62.5791 245.062C62.5909 245.074 62.5988 245.089 62.6016 245.105C62.6045 245.122 62.6021 245.139 62.5949 245.154C58.2089 250.075 54.2909 255.395 50.8918 261.043L50.5227 261.682C51.1619 261.286 51.8821 260.971 52.4762 260.638C53.5925 260.026 54.7088 259.405 55.8341 258.838C56.9594 258.271 58.0037 257.658 59.084 257.037C59.6421 256.731 60.1913 256.407 60.7584 256.137C61.434 255.829 62.0842 255.467 62.7029 255.057C62.7929 254.994 62.883 255.129 62.7929 255.174C61.6857 255.786 60.7134 256.686 59.6421 257.37C58.5708 258.054 57.4725 258.712 56.3653 259.333C54.3217 260.476 52.0981 261.295 50.0636 262.475C48.6682 264.914 47.3629 267.417 46.2016 269.965C47.4169 269.181 48.6682 268.443 49.9286 267.732C50.7478 267.282 51.558 266.832 52.3862 266.391C53.209 266.017 53.9854 265.549 54.6998 264.995C54.7718 264.932 54.8709 265.04 54.7988 265.103C53.4651 266.31 51.9827 267.342 50.3877 268.173C48.9113 269.073 47.4259 269.875 45.8865 270.622C44.6622 273.323 43.5459 276.023 42.5646 278.841C37.7303 292.534 35.9479 307.063 35.1016 321.503C34.8496 325.806 34.7235 330.109 34.6695 334.413C34.6155 338.716 34.8406 343.019 34.8316 347.322C34.8316 347.448 34.6245 347.475 34.6065 347.322C34.0844 343.505 33.9943 339.625 33.8323 335.781C33.6703 331.937 33.6973 327.994 33.7783 324.096Z" fill="#3C3633"/>
<path d="M54.6544 262.106C56.7492 261.173 58.7872 260.118 60.758 258.946C62.7493 257.818 64.6813 256.589 66.5465 255.264C66.5465 255.264 66.6186 255.264 66.5465 255.318C64.7852 256.742 62.9261 258.042 60.9831 259.207C58.9483 260.347 56.8435 261.357 54.6814 262.232C54.6364 262.268 54.5644 262.142 54.6544 262.106Z" fill="#3C3633"/>
<path d="M51.3234 246.621C51.4945 245.955 51.7015 245.298 51.9266 244.65C51.9266 244.65 51.9266 244.605 51.9266 244.578C52.0706 244.2 52.2237 243.84 52.3767 243.471L52.4307 243.336L52.5118 243.129L52.4037 243.507C52.3869 243.58 52.3658 243.652 52.3407 243.723C51.5993 246.281 51.0456 248.889 50.6843 251.528C50.6843 251.609 50.5402 251.618 50.5492 251.528C50.6499 249.871 50.9092 248.228 51.3234 246.621Z" fill="#3C3633"/>
<path d="M21.6426 326.86L22.4618 336.573L24.9735 366.2H51.8546L54.3572 336.573L55.1764 326.86H21.6426Z" fill="#747264"/>
<path d="M21.6426 326.86L22.4618 336.573H54.3572L55.1764 326.86H21.6426Z" fill="#3C3633"/>
<path d="M19.0052 332.27H57.8145V322.953H19.0052V332.27Z" fill="#747264"/>
<path d="M407.661 161.76C405.77 162.444 349.875 163.56 347.768 162.264C347.516 162.129 346.607 143.638 346.607 143.638C346.679 143.377 345.707 141.595 344.32 139.137C340.332 132.178 332.536 119.719 332.536 119.719L365.719 109.69L379.348 136.985L382.823 143.953C382.823 143.953 390.439 146.933 397.092 149.904C399.997 151.108 402.829 152.482 405.572 154.018C407.733 155.665 409.551 161.094 407.661 161.76Z" fill="#E0CCBE"/>
<path d="M407.661 161.76C405.771 162.444 349.875 163.56 347.768 162.264C347.516 162.129 346.607 143.638 346.607 143.638C346.679 143.377 345.707 141.595 344.32 139.137L379.349 136.985L382.823 143.953C382.823 143.953 390.439 146.933 397.092 149.904C399.997 151.108 402.829 152.482 405.572 154.018C407.733 155.665 409.552 161.094 407.661 161.76Z" fill="white"/>
<path d="M407.895 161.967C405.95 162.66 349.974 163.614 347.813 162.309C346.994 161.814 346.013 153.199 346.607 143.638L382.697 143.062C382.697 143.062 403.601 152.298 405.815 153.991C408.03 155.683 409.84 161.283 407.895 161.967Z" fill="#627254"/>
<path opacity="0.1" d="M362.46 162.939C354.493 162.939 348.497 162.714 347.813 162.309C346.994 161.814 346.013 153.199 346.607 143.638H347.507L362.46 162.939Z" fill="black"/>
<path d="M407.058 159.734C397.677 159.662 359.804 160.275 350.523 160.914C350.451 160.914 350.451 160.977 350.523 160.977C359.822 161.247 397.686 160.338 407.067 159.887C407.256 159.887 407.256 159.734 407.058 159.734Z" fill="#3C3633"/>
<path d="M402.179 152.046C401.135 152.034 400.1 152.24 399.141 152.651C398.181 153.062 397.318 153.668 396.606 154.432C395.31 155.79 394.588 157.596 394.59 159.473C394.59 159.527 394.698 159.527 394.707 159.473C394.99 157.609 395.872 155.888 397.22 154.569C398.568 153.25 400.309 152.406 402.179 152.163C402.251 152.154 402.251 152.046 402.179 152.046Z" fill="#3C3633"/>
<path d="M385.66 143.953C381.906 143.953 377.558 145.367 375.289 148.454C375.199 148.571 375.379 148.698 375.487 148.634C378.743 146.872 382.177 145.463 385.732 144.43C385.795 144.421 385.852 144.387 385.89 144.335C385.928 144.284 385.944 144.219 385.934 144.156C385.925 144.093 385.891 144.036 385.839 143.998C385.788 143.96 385.723 143.944 385.66 143.953Z" fill="#3C3633"/>
<path d="M388.576 145.034C384.822 145.034 380.474 146.447 378.206 149.535C378.125 149.652 378.296 149.778 378.404 149.715C381.657 147.937 385.092 146.513 388.648 145.466C388.69 145.442 388.722 145.406 388.743 145.363C388.763 145.32 388.77 145.272 388.762 145.225C388.754 145.178 388.732 145.134 388.699 145.1C388.666 145.066 388.623 145.043 388.576 145.034Z" fill="#3C3633"/>
<path d="M391.493 146.114C387.739 146.114 383.391 147.527 381.132 150.615C381.042 150.732 381.213 150.858 381.321 150.795C384.577 149.016 388.014 147.591 391.574 146.546C391.616 146.521 391.648 146.485 391.668 146.441C391.688 146.397 391.694 146.349 391.685 146.302C391.676 146.254 391.653 146.211 391.619 146.178C391.585 146.144 391.541 146.122 391.493 146.114Z" fill="#3C3633"/>
<path d="M394.455 147.194C390.692 147.194 386.352 148.608 384.084 151.695C383.994 151.812 384.165 151.938 384.273 151.875C387.507 150.11 390.92 148.695 394.455 147.653C394.508 147.643 394.556 147.614 394.59 147.572C394.624 147.53 394.643 147.478 394.643 147.424C394.643 147.37 394.624 147.317 394.59 147.275C394.556 147.233 394.508 147.205 394.455 147.194Z" fill="#3C3633"/>
<path d="M352.747 151.974C348.534 152.055 348.66 158.6 352.882 158.519C357.104 158.438 356.969 151.884 352.747 151.974Z" fill="#3C3633"/>
<path d="M389.549 133.862C387.622 132.322 385.245 133.862 384.102 135.554C382.197 138.439 381.079 141.772 380.861 145.223C380.861 145.295 380.915 145.331 380.978 145.322C380.992 145.393 381.023 145.459 381.069 145.516C381.114 145.572 381.172 145.617 381.239 145.646C381.305 145.675 381.377 145.688 381.449 145.683C381.522 145.678 381.592 145.656 381.654 145.619C384.3 143.719 387.361 142.018 389.342 139.371C390.494 137.823 391.367 135.32 389.549 133.862ZM385.047 141.964C383.769 142.936 382.455 143.827 381.212 144.835C381.794 142.936 382.47 141.067 383.238 139.236C383.625 138.357 384.067 137.503 384.561 136.679C385.363 135.428 388.99 132.178 389.432 136.301C389.711 138.507 386.596 140.775 385.074 141.919L385.047 141.964Z" fill="#3C3633"/>
<path d="M371.553 146.771C374.83 147.221 378.188 146.231 381.393 145.673C381.462 145.654 381.525 145.619 381.579 145.572C381.632 145.524 381.673 145.465 381.699 145.398C381.726 145.332 381.736 145.26 381.73 145.189C381.723 145.118 381.701 145.049 381.663 144.989C381.675 144.978 381.684 144.966 381.69 144.952C381.696 144.938 381.7 144.923 381.7 144.908C381.7 144.892 381.696 144.877 381.69 144.863C381.684 144.849 381.675 144.837 381.663 144.826C379.054 142.551 375.894 140.999 372.499 140.325C370.509 139.983 367.727 140.559 367.475 143.026C367.223 145.493 369.636 146.51 371.553 146.771ZM369.249 144.673C366.647 141.496 371.481 141.154 372.931 141.469C373.869 141.682 374.789 141.965 375.685 142.315C377.527 143.051 379.329 143.881 381.087 144.799C379.493 144.98 377.936 145.286 376.352 145.52C374.479 145.799 370.68 146.429 369.249 144.673Z" fill="#3C3633"/>
<path d="M341.791 138.759L381.158 132.79C381.158 132.79 362.253 95.0794 350.55 74.617C344.042 63.238 326.244 62.6798 317.557 76.3184C305.962 94.5302 296.977 111.59 291.828 121.024L282.897 121.789L284.824 136.373L314.532 143.017C325.902 144.385 333.878 124.112 334.067 124.49C335.462 127.173 341.791 138.759 341.791 138.759Z" fill="#3C3633"/>
<path d="M334.238 124.625C333.113 122.33 332.239 119.899 331.249 117.549L328.359 110.735C326.433 106.134 324.434 101.552 322.562 96.9339C321.509 94.3412 320.545 91.7125 319.564 89.0928C319.564 89.0298 319.438 89.0928 319.456 89.0928C320.221 91.5684 321.013 94.0441 321.842 96.4928C321.617 96.0696 321.401 95.6465 321.166 95.2324C320.536 94.1071 319.888 92.9908 319.231 91.8745H319.168C319.771 92.9998 320.374 94.1161 320.968 95.2234C321.275 95.7816 321.617 96.3217 321.95 96.8708C324.242 103.762 326.969 110.5 330.115 117.045C331.366 119.611 332.816 122.069 334.085 124.634C334.139 124.76 334.274 124.688 334.238 124.625Z" fill="#3C3633"/>
<path d="M342.673 131.755C340.774 128.829 336.255 119.971 334.634 116.901C331.366 110.708 328.333 104.379 325.533 97.9961C323.93 94.3952 322.436 90.7222 320.951 87.0493C323.213 93.6571 325.806 100.147 328.72 106.494C331.6 112.859 340.918 130 342.592 131.854C342.619 131.899 342.727 131.827 342.673 131.755Z" fill="#3C3633"/>
<path d="M318.24 91.9195C314.846 97.9781 311.381 103.992 307.978 110.041C306.258 113.093 304.53 116.154 302.828 119.215C302.027 120.664 301.253 122.123 300.416 123.545C299.705 124.893 298.628 126.013 297.31 126.777C295.732 127.525 294.078 128.102 292.377 128.496C290.459 129.054 288.56 129.657 286.633 130.189C286.543 130.189 286.588 130.342 286.633 130.324C288.343 129.865 290.072 129.423 291.8 129.045C293.386 128.708 294.951 128.284 296.491 127.776C297.856 127.326 299.063 126.492 299.966 125.372C300.892 124.09 301.708 122.732 302.405 121.312C305.838 115.119 309.214 108.88 312.533 102.596C314.441 99.0404 316.323 95.4755 318.24 91.9375C318.276 91.9195 318.249 91.9015 318.24 91.9195Z" fill="#3C3633"/>
<path d="M340.9 133.231C343.258 132.799 345.671 132.601 348.048 132.331L355.204 131.431C359.958 130.81 376.153 128.226 377.377 127.83C377.393 127.824 377.407 127.814 377.417 127.8C377.426 127.787 377.432 127.77 377.432 127.753C377.432 127.737 377.426 127.72 377.417 127.707C377.407 127.693 377.393 127.683 377.377 127.677C376.216 127.677 365.611 129.054 363.235 129.405C358.481 130.108 353.755 130.945 349.011 131.746C347.66 131.971 346.31 132.232 344.96 132.475C343.609 132.718 342.259 133.006 340.909 133.177C340.905 133.164 340.896 133.152 340.884 133.144C340.873 133.135 340.859 133.131 340.844 133.132C340.83 133.133 340.817 133.139 340.806 133.148C340.795 133.158 340.788 133.171 340.786 133.185C340.784 133.199 340.786 133.213 340.793 133.226C340.8 133.238 340.811 133.248 340.824 133.253C340.837 133.259 340.852 133.26 340.866 133.256C340.88 133.252 340.891 133.243 340.9 133.231Z" fill="#3C3633"/>
<path d="M364.504 174.138C363.874 172.239 330.133 127.65 327.828 126.795C327.558 126.678 312.479 137.418 312.479 137.418C311.858 138.246 283.186 132.187 283.186 132.187L282.897 166.774L335.111 165.667C335.111 165.667 342.16 169.808 348.615 173.193C351.359 174.735 354.194 176.109 357.104 177.307C359.76 177.946 365.143 176.002 364.504 174.138Z" fill="#E0CCBE"/>
<path d="M357.149 177.271C354.235 176.081 351.399 174.707 348.659 173.157C342.214 169.781 335.156 165.622 335.156 165.622L323.534 165.874L305.331 136.508C309.319 137.219 312.299 137.643 312.533 137.409C312.533 137.409 327.612 126.678 327.882 126.795C330.187 127.65 363.892 172.23 364.558 174.138C365.224 176.047 359.759 177.946 357.149 177.271Z" fill="white"/>
<path d="M364.81 174.138C364.144 172.185 330.25 127.632 327.9 126.741C327 126.408 319.627 130.963 312.497 137.355L334.382 166.054C334.382 166.054 354.574 176.749 357.275 177.442C359.976 178.135 365.476 176.119 364.81 174.138Z" fill="#627254"/>
<path d="M362.542 174.876C356.672 167.549 333.734 137.436 328.468 129.748C328.468 129.685 328.468 129.648 328.522 129.748C334.49 136.886 357.212 167.179 362.668 174.822C362.776 174.948 362.668 175.038 362.542 174.876Z" fill="#3C3633"/>
<path d="M353.476 175.822C352.82 175.008 352.341 174.067 352.07 173.057C351.799 172.048 351.741 170.994 351.9 169.961C352.161 168.105 353.128 166.421 354.601 165.262C354.646 165.262 354.709 165.307 354.664 165.352C353.379 166.732 352.576 168.491 352.375 170.365C352.174 172.239 352.585 174.129 353.548 175.75C353.552 175.76 353.554 175.771 353.552 175.782C353.55 175.793 353.545 175.803 353.537 175.811C353.529 175.819 353.519 175.824 353.508 175.826C353.497 175.828 353.486 175.826 353.476 175.822Z" fill="#3C3633"/>
<path d="M336.894 167.837C334.58 164.875 332.996 160.635 334.031 156.89C334.031 156.746 334.274 156.809 334.301 156.89C334.916 160.546 335.921 164.125 337.299 167.567C337.335 167.62 337.348 167.686 337.335 167.749C337.323 167.813 337.285 167.868 337.232 167.904C337.178 167.94 337.112 167.953 337.049 167.94C336.986 167.928 336.93 167.89 336.894 167.837Z" fill="#3C3633"/>
<path d="M339.541 169.475C337.227 166.522 335.642 162.273 336.678 158.528C336.678 158.384 336.921 158.447 336.939 158.573C337.561 162.228 338.569 165.807 339.946 169.25C339.966 169.303 339.966 169.361 339.947 169.414C339.928 169.467 339.89 169.511 339.841 169.538C339.791 169.566 339.734 169.574 339.679 169.563C339.624 169.551 339.575 169.52 339.541 169.475Z" fill="#3C3633"/>
<path d="M342.241 171.095C339.927 168.143 338.343 163.894 339.378 160.158C339.378 160.014 339.621 160.068 339.639 160.158C340.261 163.813 341.269 167.392 342.646 170.834C342.68 170.888 342.692 170.953 342.679 171.016C342.665 171.078 342.628 171.133 342.574 171.167C342.52 171.202 342.455 171.214 342.392 171.2C342.33 171.187 342.275 171.149 342.241 171.095Z" fill="#3C3633"/>
<path d="M344.861 172.725C342.547 169.763 340.963 165.523 341.998 161.778C341.998 161.634 342.241 161.697 342.259 161.778C342.881 165.433 343.889 169.012 345.266 172.455C345.302 172.509 345.315 172.574 345.302 172.638C345.289 172.701 345.252 172.757 345.198 172.792C345.145 172.828 345.079 172.841 345.016 172.829C344.952 172.816 344.897 172.779 344.861 172.725Z" fill="#3C3633"/>
<path d="M322.822 137.039C320.284 133.682 325.523 129.73 328.044 133.096C330.564 136.463 325.37 140.406 322.822 137.039Z" fill="#3C3633"/>
<path d="M335.579 173.58C336.434 170.384 335.867 166.927 335.723 163.677C335.714 163.602 335.686 163.531 335.642 163.469C335.599 163.407 335.54 163.357 335.473 163.323C335.405 163.289 335.33 163.273 335.254 163.275C335.179 163.277 335.105 163.298 335.039 163.335C335.031 163.322 335.02 163.312 335.006 163.304C334.993 163.297 334.978 163.293 334.962 163.293C334.947 163.293 334.932 163.297 334.919 163.304C334.905 163.312 334.894 163.322 334.886 163.335C332.306 165.638 330.38 168.583 329.304 171.87C328.71 173.787 328.935 176.632 331.339 177.19C333.743 177.748 335.039 175.444 335.579 173.58ZM333.238 175.606C329.764 177.775 330.025 172.905 330.538 171.546C330.878 170.645 331.275 169.767 331.726 168.917C332.69 167.181 333.741 165.495 334.877 163.867C334.877 165.46 334.958 167.053 334.994 168.647C334.976 170.537 335.12 174.399 333.238 175.606Z" fill="#3C3633"/>
<path d="M324.939 154.135C323.138 155.854 324.435 158.402 325.938 159.743C328.554 162.002 331.717 163.533 335.112 164.182C335.127 164.185 335.142 164.184 335.157 164.18C335.172 164.175 335.186 164.168 335.197 164.157C335.209 164.147 335.217 164.134 335.223 164.119C335.228 164.105 335.23 164.089 335.229 164.074C335.301 164.067 335.37 164.043 335.431 164.004C335.492 163.965 335.544 163.913 335.58 163.85C335.617 163.788 335.639 163.718 335.643 163.646C335.648 163.573 335.635 163.501 335.607 163.434C334.058 160.572 332.753 157.322 330.376 155.026C328.99 153.685 326.613 152.533 324.939 154.135ZM332.375 159.581C333.167 160.968 333.887 162.381 334.733 163.74C332.933 162.84 331.133 162.084 329.431 161.04C328.606 160.545 327.815 159.994 327.063 159.392C325.92 158.447 323.201 154.441 327.307 154.513C329.566 154.558 331.439 157.934 332.339 159.581H332.375Z" fill="#3C3633"/>
<path d="M298.174 124.157C298.174 124.157 240.946 114.11 224.67 117.423C201.966 122.023 197.789 148.878 214.632 158.834C236.013 171.546 321.896 169.088 321.896 169.088L301.37 134.312C301.37 134.312 269.799 127.659 241.171 128.622L298.427 137.373L298.174 124.157Z" fill="#3C3633"/>
<path d="M302.738 136.553C302.715 136.496 302.7 136.435 302.693 136.373C302.693 136.328 302.693 136.274 302.693 136.229C302.693 136.184 302.63 136.004 302.603 135.887C302.534 135.658 302.453 135.433 302.36 135.212C302.276 134.985 302.179 134.763 302.072 134.546C301.963 134.332 301.837 134.127 301.694 133.934H301.64H301.586H301.532C298.066 133.285 274.471 129.919 270.969 129.513C267.467 129.108 263.884 128.784 260.337 128.487C253.258 127.872 246.152 127.617 239.046 127.722L237.048 127.776C236.913 127.776 236.76 127.704 236.616 127.668C236.274 127.587 235.932 127.506 235.589 127.443C234.95 127.317 234.302 127.227 233.663 127.128C232.313 126.921 230.962 126.777 229.63 126.525C229.613 126.525 229.597 126.531 229.585 126.543C229.574 126.555 229.567 126.571 229.567 126.588C229.567 126.604 229.574 126.62 229.585 126.632C229.597 126.644 229.613 126.651 229.63 126.651C230.971 126.948 232.331 127.335 233.636 127.632L234.797 127.875C232.196 128.019 229.603 128.217 227.001 128.451C226.92 128.451 226.92 128.586 227.001 128.577C230.539 128.37 234.095 128.343 237.642 128.406C241.189 128.469 244.673 128.541 248.184 128.748C255.287 129.153 262.381 129.793 269.456 130.549C273.426 130.963 297.481 134.474 301.469 134.636C301.469 134.726 301.532 134.816 301.577 134.906C301.622 134.996 301.802 135.338 301.919 135.545C302.036 135.752 302.144 135.95 302.27 136.148L302.468 136.436L302.567 136.58C302.61 136.626 302.647 136.678 302.675 136.733C302.63 136.688 302.783 136.634 302.738 136.553Z" fill="#3C3633"/>
<path d="M314.486 166.936C313.217 164.911 312.137 162.741 310.975 160.635L307.465 154.333C305.133 150.138 296.752 136.049 295.923 135.059C295.869 134.996 295.761 135.059 295.788 135.14C296.185 136.238 301.415 145.565 302.621 147.644C305.025 151.803 307.555 155.881 310.048 159.995C310.768 161.166 311.507 162.318 312.227 163.488C312.947 164.659 313.712 165.802 314.378 166.999C314.414 167.116 314.531 167.044 314.486 166.936Z" fill="#3C3633"/>
<path d="M295.69 138.615C293.592 138.111 291.45 137.787 289.325 137.382L282.961 136.184C278.717 135.398 274.465 134.645 270.204 133.925C261.706 132.493 253.181 131.314 244.601 130.486C239.767 130.027 234.915 129.721 230.063 129.36C229.964 129.36 229.964 129.522 230.063 129.522C238.705 129.91 247.329 131.08 255.881 132.313C264.434 133.547 272.797 134.861 281.241 136.283L288.38 137.508C290.802 137.931 293.214 138.408 295.654 138.75C295.744 138.768 295.78 138.633 295.69 138.615Z" fill="#3C3633"/>
<path d="M288.579 70.5029C290.235 80.8286 299.021 112.895 308.384 116.316C314.496 118.558 346.41 116.712 351.595 111.293C353.873 108.925 351.118 88.7417 347.616 88.9938C344.114 89.2458 319.286 93.4409 316.882 92.3697C314.478 91.2984 303.135 70.2688 296.987 62.3827C287.516 50.2385 287.327 62.3827 288.579 70.5029Z" fill="#E0CCBE"/>
<path d="M292.296 89.804L309.832 79.5593C309.832 79.5593 302.63 68.2073 296.869 61.4915C291.107 54.7757 286.147 53.2003 287.596 67.01C288.345 74.7539 289.92 82.3954 292.296 89.804Z" fill="#3C3633"/>
<path d="M302.459 123.725C301.514 124.499 248.526 119.071 248.301 118.702C247.689 117.702 258.726 85.0237 265.864 72.9065C275.011 57.3684 279.17 56.3872 281.664 55.712C284.85 54.8117 290.072 55.5319 292.466 57.2604C293.799 58.2146 297.382 66.0557 298.597 72.2493C301.046 84.6636 303.278 123.014 302.459 123.725Z" fill="#627254"/>
<path d="M291.153 64.6333C288.128 65.3625 282.916 60.7623 280.854 57.0263C280.71 56.7653 281.097 54.0556 281.403 50.7247C281.583 48.7171 281.737 46.4666 281.728 44.423C281.728 43.9999 294.646 47.5018 294.646 47.5018C293.92 50.0772 293.512 52.7315 293.431 55.4059C293.437 55.69 293.467 55.9731 293.521 56.2521C293.526 56.297 293.526 56.3423 293.521 56.3872C293.809 58.0076 294.07 63.9222 291.153 64.6333Z" fill="#E0CCBE"/>
<path d="M282.52 44.504C283.132 47.9789 285.328 56.3692 292.215 56.4952C292.657 56.5049 293.1 56.4808 293.538 56.4232C293.545 56.3754 293.545 56.327 293.538 56.2791C293.481 56.0004 293.448 55.7173 293.439 55.4329C293.521 52.7579 293.932 50.1032 294.664 47.5288C294.664 47.5288 285.319 44.9812 282.52 44.504Z" fill="#3C3633"/>
<path d="M282.411 27.3995C280.142 31.6126 279.917 45.0442 282.528 48.5731C286.309 53.6954 293.808 55.613 298.48 50.7607C302.982 46.0704 302.982 28.5518 299.957 25.2119C295.483 20.2696 285.76 21.1519 282.411 27.3995Z" fill="#E0CCBE"/>
<path d="M292.611 39.3817C292.611 39.3817 292.539 39.3817 292.539 39.4627C292.539 40.3629 292.404 41.4072 291.585 41.6863V41.7403C292.593 41.6233 292.728 40.2369 292.611 39.3817Z" fill="#3C3633"/>
<path d="M291.827 38.4184C290.378 38.2744 290.198 41.1912 291.548 41.3262C292.899 41.4612 293.043 38.5444 291.827 38.4184Z" fill="#3C3633"/>
<path d="M297.661 39.7148C297.661 39.7148 297.733 39.7688 297.733 39.8048C297.643 40.705 297.733 41.7493 298.498 42.1004V42.1544C297.499 41.9473 297.445 40.561 297.661 39.7148Z" fill="#3C3633"/>
<path d="M298.526 38.8235C299.993 38.8235 299.921 41.7223 298.571 41.7403C297.22 41.7583 297.31 38.8415 298.526 38.8235Z" fill="#3C3633"/>
<path d="M290.622 36.0328C291.02 36.0175 291.417 35.9754 291.81 35.9068C292.237 35.9251 292.658 35.8017 293.008 35.5557C293.102 35.4578 293.162 35.3313 293.176 35.196C293.191 35.0606 293.16 34.9243 293.089 34.8085C292.913 34.5981 292.684 34.4386 292.426 34.3468C292.168 34.2549 291.89 34.2341 291.621 34.2863C291.065 34.3105 290.536 34.5379 290.136 34.9255C290.052 35.0208 289.996 35.1382 289.977 35.2638C289.957 35.3895 289.974 35.5181 290.025 35.6345C290.076 35.751 290.159 35.8504 290.265 35.9209C290.371 35.9915 290.495 36.0303 290.622 36.0328Z" fill="#3C3633"/>
<path d="M299.993 36.78C299.608 36.6757 299.229 36.5494 298.859 36.4019C298.439 36.332 298.055 36.1227 297.769 35.8077C297.696 35.691 297.664 35.5528 297.678 35.4155C297.693 35.2782 297.754 35.15 297.85 35.0515C298.067 34.8849 298.323 34.7794 298.594 34.7461C298.865 34.7128 299.14 34.753 299.39 34.8625C299.923 34.9923 300.391 35.3124 300.704 35.7627C300.779 35.8742 300.818 36.0057 300.816 36.1397C300.815 36.2738 300.773 36.4044 300.696 36.5143C300.619 36.6242 300.511 36.7084 300.386 36.7558C300.26 36.8032 300.123 36.8116 299.993 36.78Z" fill="#3C3633"/>
<path d="M291.701 45.0352C291.908 45.4077 292.19 45.7331 292.529 45.9904C292.869 46.2477 293.258 46.4314 293.673 46.5296C294.033 46.6277 294.407 46.6672 294.78 46.6466C294.849 46.6557 294.918 46.6557 294.987 46.6466H295.185C295.234 46.6412 295.28 46.6198 295.316 46.5856C295.352 46.5515 295.376 46.5064 295.383 46.4575V46.3045V46.2235C295.446 45.5303 295.446 44.423 295.446 44.423C295.689 44.567 296.95 45.2332 296.95 44.8641C297.057 41.7453 296.849 38.6236 296.328 35.5467C296.323 35.5286 296.311 35.513 296.296 35.5018C296.28 35.4907 296.262 35.4847 296.243 35.4847C296.224 35.4847 296.205 35.4907 296.19 35.5018C296.175 35.513 296.163 35.5286 296.157 35.5467C296.04 38.4544 296.436 41.3532 296.364 44.27C295.914 44.0283 295.432 43.8496 294.933 43.7388C294.834 43.7388 294.978 45.7914 294.933 46.1064C294.365 46.1333 293.798 46.046 293.264 45.8496C292.731 45.6532 292.242 45.3518 291.827 44.9631C291.728 44.9091 291.656 44.9631 291.701 45.0352Z" fill="#3C3633"/>
<path d="M294.385 46.3045C293.975 46.7801 293.447 47.1401 292.854 47.3488C292.529 47.4522 292.18 47.4522 291.855 47.3488C291.144 47.1147 291.171 46.4485 291.333 45.8904C291.429 45.5957 291.555 45.3121 291.711 45.0442C292.446 45.7367 293.383 46.178 294.385 46.3045Z" fill="#3C3633"/>
<path d="M292.854 47.3128C292.529 47.4162 292.18 47.4162 291.855 47.3128C291.144 47.0787 291.171 46.4125 291.333 45.8544C291.715 45.888 292.074 46.0509 292.35 46.316C292.627 46.5812 292.805 46.9328 292.854 47.3128Z" fill="#FF98B9"/>
<path d="M281.168 39.4267C283.959 40.2279 286.795 28.2097 286.795 28.2097C288.218 29.4419 289.821 30.4498 291.548 31.1985C293.34 31.8314 295.197 32.2631 297.085 32.4859C297.508 32.4859 293.205 29.209 293.205 29.209C295.857 30.326 298.708 30.8956 301.586 30.8834C303.737 30.7574 303.62 29.8392 303.71 29.137C303.8 28.4348 301.055 21.1789 292.349 20.3416C290.59 20.2152 288.826 20.5263 287.216 21.2473C285.606 21.9684 284.199 23.0768 283.122 24.4737C283.122 24.4737 279.116 27.1744 278.702 29.173C278.135 31.8377 278.225 38.5805 281.168 39.4267Z" fill="#3C3633"/>
<path d="M297.157 40.1379C297.301 38.0853 298.526 36.5369 299.858 36.5999C301.19 36.663 302.199 38.4004 302.055 40.489C301.91 42.5775 300.686 44.0899 299.354 44.0179C298.021 43.9459 297.013 42.1814 297.157 40.1379ZM297.652 40.1379C297.526 41.9383 298.301 43.4147 299.381 43.4868C300.461 43.5588 301.442 42.1814 301.568 40.4169C301.694 38.6525 300.92 37.1401 299.84 37.0591C298.76 36.978 297.787 38.4004 297.652 40.1739V40.1379Z" fill="#747264"/>
<path d="M287.831 39.4717C287.924 38.7986 288.212 38.1674 288.659 37.6558C289.106 37.1443 289.694 36.7747 290.348 36.5926C291.003 36.4106 291.697 36.4239 292.344 36.6311C292.991 36.8382 293.564 37.2301 293.991 37.7585C294.418 38.2869 294.682 38.9287 294.749 39.6049C294.816 40.2812 294.684 40.9622 294.369 41.5643C294.054 42.1664 293.569 42.6633 292.976 42.9936C292.382 43.324 291.704 43.4735 291.027 43.4237C290.08 43.3217 289.211 42.8485 288.612 42.1078C288.013 41.3671 287.732 40.4192 287.831 39.4717ZM288.326 39.4717C288.331 40.0507 288.505 40.6157 288.826 41.0976C289.147 41.5796 289.601 41.9575 290.133 42.1853C290.666 42.4131 291.253 42.4809 291.823 42.3803C292.393 42.2798 292.922 42.0153 293.344 41.6191C293.767 41.223 294.064 40.7124 294.201 40.1497C294.338 39.5871 294.308 38.9968 294.114 38.451C293.921 37.9052 293.573 37.4275 293.112 37.0764C292.652 36.7253 292.099 36.5159 291.522 36.4739C290.697 36.4521 289.897 36.7583 289.298 37.3254C288.699 37.8925 288.349 38.6741 288.326 39.4987V39.4717Z" fill="#747264"/>
<path d="M294.619 39.6157C296.518 39.0936 297.319 39.7688 297.319 39.7688L297.652 39.3997C297.652 39.3997 296.671 38.4994 294.475 39.1386L294.619 39.6157Z" fill="#747264"/>
<path d="M288.101 39.1566L288.227 38.6795C287.912 38.5985 280.431 36.654 279.612 36.5549C278.793 36.4559 276.641 37.4552 276.407 37.5452L276.623 37.9953C277.528 37.5225 278.504 37.2002 279.513 37.0411C280.179 37.1311 285.419 38.4634 288.101 39.1566Z" fill="#747264"/>
<path d="M283.068 38.4904C283.068 38.4904 280.881 33.7552 278.783 34.4664C276.686 35.1776 277.802 41.6683 279.891 42.9016C280.148 43.0782 280.439 43.201 280.745 43.2628C281.051 43.3245 281.367 43.3238 281.673 43.2608C281.978 43.1977 282.269 43.0736 282.525 42.8959C282.782 42.7182 283.001 42.4905 283.167 42.2264L283.068 38.4904Z" fill="#E0CCBE"/>
<path d="M279.144 36.3119C279.144 36.3119 279.144 36.3119 279.144 36.3749C280.602 37.2751 281.169 38.8955 281.475 40.516C281.412 40.3449 281.313 40.1893 281.184 40.0597C281.056 39.9301 280.901 39.8296 280.73 39.7647C280.56 39.6999 280.377 39.6724 280.195 39.6839C280.013 39.6955 279.836 39.7459 279.675 39.8318C279.621 39.8318 279.675 39.9218 279.675 39.9218C279.966 39.8843 280.261 39.9377 280.521 40.0747C280.78 40.2117 280.991 40.4255 281.124 40.687C281.345 41.1289 281.518 41.5938 281.637 42.0734C281.691 42.2264 281.952 42.1904 281.934 42.0194C282.312 40.0028 281.259 36.906 279.144 36.3119Z" fill="#3C3633"/>
<path d="M313.793 104.73C313.793 108.052 304.377 107.215 302.027 107.503C299.678 107.791 299.327 108.403 300.515 109.087C300.76 109.203 301.017 109.293 301.28 109.357C297.625 108.601 285.544 104.388 285.544 104.388C285.544 104.388 292.8 101.984 296.644 101.21C300.488 100.436 313.802 101.39 313.793 104.73Z" fill="#E0CCBE"/>
<path d="M336.38 87.6434C338.264 85.9404 340.329 84.4491 342.538 83.1962C345.473 81.6928 352.017 78.9921 353.134 78.1729L355.168 77.7138L348.543 122.231L331.114 130.027L299.516 126.75L303.954 84.7266L306.015 84.2315C306.015 84.2315 310.048 84.8077 313.334 84.9517C316.62 85.0957 327.684 83.6734 336.38 87.6434Z" fill="white"/>
<path d="M328.593 131.53L334.031 88.7957L302.586 84.4926L297.904 127.956L328.593 131.53Z" fill="#627254"/>
<path opacity="0.1" d="M328.593 131.53L334.031 88.7957L302.586 84.4926L297.904 127.956L328.593 131.53Z" fill="black"/>
<path d="M328.594 131.53L332.996 131.035L338.478 88.3006L334.031 88.7957L328.594 131.53Z" fill="#627254"/>
<path d="M332.995 131.035L338.478 88.3006L355.996 77.1917L349.127 122.546L332.995 131.035Z" fill="#627254"/>
<path opacity="0.1" d="M332.995 131.035L338.478 88.3006L355.996 77.1917L349.127 122.546L332.995 131.035Z" fill="black"/>
<path d="M266.928 66.5328C260.293 73.9598 238.957 104.955 241.811 114.47C243.683 120.709 278.469 129.396 285.923 130.333C289.181 130.738 293.458 108.34 291.162 105.693C288.866 103.046 267.909 102.992 267.333 100.391C266.756 97.7891 277.613 74.4639 279.396 65.7136C282.52 50.4816 271.123 61.8156 266.928 66.5328Z" fill="#E0CCBE"/>
<path d="M321.004 117.918C320.851 120.853 316.296 121.834 315.981 121.888C316.26 121.888 320.311 121.456 319.951 124.373C319.591 127.29 315.585 128.946 315.585 128.946C315.585 128.946 316.926 129.639 315.711 131.647C313.956 134.528 306.709 135.401 302.847 134.969C298.985 134.537 285.058 130.072 282.942 129.342L285.526 104.388C285.526 104.388 297.607 108.601 301.262 109.357H301.316C303.841 109.949 306.399 110.388 308.977 110.671C313.073 110.96 318.709 107.971 319.393 110.942C320.014 113.597 315.9 115.29 315.9 115.29C315.9 115.29 321.166 114.885 321.004 117.918Z" fill="#E0CCBE"/>
<path d="M315.694 115.281C309.806 117.243 306.889 117.081 300.966 115.614C300.944 115.612 300.923 115.618 300.905 115.63C300.887 115.642 300.873 115.659 300.866 115.68C300.859 115.7 300.858 115.723 300.865 115.743C300.872 115.764 300.885 115.781 300.903 115.794C306.574 117.756 310.202 118.495 315.802 115.56C316.072 115.416 315.973 115.191 315.694 115.281Z" fill="#3C3633"/>
<path d="M316.206 121.753C309.905 123.257 306.754 123.104 300.434 122.032C300.344 122.032 300.308 122.168 300.434 122.186C306.547 123.761 310.184 124.409 316.269 122.086C316.503 121.978 316.494 121.681 316.206 121.753Z" fill="#3C3633"/>
<path d="M315.504 128.91C309.31 129.928 305.835 129.91 299.831 128.082C299.804 128.08 299.778 128.086 299.756 128.101C299.734 128.115 299.717 128.137 299.709 128.162C299.701 128.187 299.701 128.214 299.71 128.238C299.719 128.263 299.736 128.284 299.759 128.298C305.691 130.756 310.021 130.81 315.513 129.099C315.882 128.991 315.891 128.847 315.504 128.91Z" fill="#3C3633"/>
<path d="M355.681 89.5609C357.653 92.3697 361.983 95.5385 362.676 97.9871C362.876 98.5821 362.88 99.2258 362.685 99.8226C362.49 100.419 362.108 100.938 361.596 101.3C361.596 101.3 364.296 102.119 364.593 104.451C364.746 105.648 362.964 106.944 362.964 106.944C363.567 107.162 364.098 107.542 364.498 108.042C364.899 108.543 365.153 109.144 365.233 109.78C365.341 111.437 363.54 112.481 363.54 112.481C363.54 112.481 365.26 114.146 364.819 115.875C363.918 119.386 349.848 121.789 346.814 116.973C345.391 114.723 348.866 114.326 348.866 114.326C348.866 114.326 343.726 113.696 343.159 110.807C342.592 107.917 347.129 107.665 347.129 107.665C347.129 107.665 342.16 107.008 341.871 103.947C341.583 100.886 346.157 101.291 346.157 101.291C346.157 101.291 342.664 99.7066 342.979 97.312C343.501 93.3599 350.235 97.0689 353.205 95.7996L354.043 90.3981L355.681 89.5609Z" fill="#E0CCBE"/>
<path d="M359.265 93.513C357.627 90.6952 360.724 86.3111 359.544 83.4123C357.951 79.4512 354.017 84.2675 354.008 90.4071L354.845 95.1784L359.265 93.513Z" fill="#E0CCBE"/>
<path d="M363.28 112.688C363.325 112.688 363.352 112.742 363.28 112.76C358.669 114.777 353.554 115.342 348.615 114.38C348.462 114.38 348.444 114.074 348.615 114.083C353.545 114.335 358.486 113.865 363.28 112.688Z" fill="#3C3633"/>
<path d="M363.037 106.963C363.091 106.963 363.118 107.035 363.037 107.062C357.929 109.231 352.213 109.503 346.922 107.827C346.742 107.764 346.643 107.521 346.859 107.575C350.523 108.547 358.562 108.124 363.037 106.963Z" fill="#3C3633"/>
<path d="M345.779 101.048C350.964 102.632 356.132 102.398 361.416 101.39C361.479 101.39 361.497 101.48 361.416 101.507C358.967 102.704 355.538 102.992 352.846 102.992C350.347 103.027 347.883 102.406 345.698 101.192C345.635 101.219 345.671 101.012 345.779 101.048Z" fill="#3C3633"/>
<path d="M254.585 79.8563L273.373 87.6434C273.373 87.6434 278.063 75.0401 279.909 66.3888C281.754 57.7375 280.008 52.8132 269.853 62.3467C264.157 67.6248 259.038 73.4944 254.585 79.8563Z" fill="#3C3633"/>
<path d="M330.025 20.8548C329.377 24.8969 325.893 28.2727 325.893 28.2727C325.893 28.2727 321.104 27.4805 318.277 24.5098C315.909 22.0431 315.846 18.5952 317.917 17.1908C320.888 15.1743 323.507 20.6207 323.507 20.6207C323.507 20.6207 322.562 14.6522 326.154 14.6161C328.657 14.5981 330.538 17.4969 330.025 20.8548Z" fill="#ADBC9F"/>
<path d="M313.793 38.2564C312.147 39.5542 310.17 40.3651 308.086 40.597C306.713 39.0162 305.808 37.0829 305.475 35.0155C305.25 32.5489 306.772 30.5593 308.581 30.7034C311.174 30.9014 310.202 35.2046 310.202 35.2046C310.202 35.2046 312.371 31.3966 314.415 32.999C315.846 34.0973 315.621 36.5819 313.793 38.2564Z" fill="#ADBC9F"/>
<path d="M311.507 3.09309C310.941 4.20917 310.074 5.14467 309.004 5.7938C307.855 5.28826 306.869 4.47129 306.16 3.43518C305.403 2.14784 305.727 0.671451 306.745 0.284349C308.203 -0.264796 308.77 2.30988 308.77 2.30988C308.77 2.30988 308.977 -0.318813 310.499 0.0322798C311.561 0.266342 312.083 1.67972 311.507 3.09309Z" fill="#ADBC9F"/>
</svg>
